<svg id="Layer_1" data-name="Layer 1" xmlns="http://www.w3.org/2000/svg" xmlns:xlink="http://www.w3.org/1999/xlink" viewBox="0 0 113.53 113.53"><defs><style>.cls-1{fill:url(#linear-gradient);}.cls-2{fill:#fff;}</style><linearGradient id="linear-gradient" y1="56.76" x2="113.53" y2="56.76" gradientUnits="userSpaceOnUse"><stop offset="0" stop-color="#f30"/><stop offset="0.16" stop-color="#fe4601"/><stop offset="0.52" stop-color="#fd6d02"/><stop offset="0.82" stop-color="#fc8503"/><stop offset="1" stop-color="#fc8e03"/></linearGradient></defs><rect class="cls-1" width="113.53" height="113.53"/><path class="cls-2" d="M97.35,66.41V46.79h-8V35.63l4.82-4.82L82.56,19.16l-5,5H66.65v-8H47v8H35.86l-5-5L19.24,30.81l4.9,4.9V46.79h-8V66.41h8V77.59l-4.9,4.9L30.89,94.14l4.74-4.75H47v8H66.65v-8H77.82l4.74,4.75L94.21,82.49l-4.82-4.82V66.41Zm-33.8-22.9L70,50V69.72H50l-6.3-6.3-.15-19.91Z"/></svg>
