<svg id="Layer_1" data-name="Layer 1" xmlns="http://www.w3.org/2000/svg" xmlns:xlink="http://www.w3.org/1999/xlink" viewBox="0 0 1153.29 112.48"><defs><style>.cls-1{mask:url(#mask);}.cls-2{fill:url(#linear-gradient);}.cls-3{filter:url(#luminosity-invert);}</style><filter id="luminosity-invert" filterUnits="userSpaceOnUse" color-interpolation-filters="sRGB"><feColorMatrix values="-1 0 0 0 1 0 -1 0 0 1 0 0 -1 0 1 0 0 0 1 0"/></filter><mask id="mask" x="0" y="0" width="1153.29" height="113.71" maskUnits="userSpaceOnUse"><g class="cls-3"><path d="M112.8,35.43H34.52l.34,44.71H79.74v-12H45.48V45H113l-.17,23.13V95.21l-18.5,18.5H20L1.46,95.21V20.87L20,2.37H94.3l18.5,18.5Z"/><path d="M240.58,29.26H162.82V44.34h69.71V71.23H162.82V86.48h77.76v27.23H129.76V2.37H240.58Z"/><path d="M257,20.35l18.15-18h74.69l18.16,18v93.36H334.8V93.16H290.09v20.55H257ZM334.8,35.43H290.09V59.58H334.8Z"/><path d="M477.48,2.37,495.81,20.7V56.5l-9.94,9.93,9.94,9.94v37.34H462.07V84.93H419.24v28.78H385V2.37ZM462.07,56.16V31.66H419.24v24.5Z"/><path d="M611.09,79.28V2.37h31.35V95.21l-18.5,18.5H589.85l-12.16-12.33-12.34,12.33H531.27l-18.5-18.5V2.37H543.6V79.28h18.33V2.37h31.35V79.28Z"/><path d="M879.85,2.37,898.18,20.7V56.5l-9.94,9.93,9.94,9.94v37.34H864.43V84.93H821.61v28.78H787.35V2.37ZM864.43,56.16V31.66H821.61v24.5Z"/><path d="M950.08,70v43.68H915.14V2.37h34.94V45.54L993.25,2.37h33.23V14.7L983.14,58l43.34,43.34v12.33H993.59Z"/><path d="M1041.38,20.7l18-18.33h93.35V31.66l-76.4.17V44.34h62.36l14,14.21V94.7l-19,19h-92.33V84.25h75.2v-13h-61.5l-13.7-13.7Z"/><path d="M769.88,70.82V43.62h-11V28.14l6.68-6.68L749.38,5.3l-6.9,6.9H727.32v-11h-27.2v11h-15.5l-6.89-6.9L661.58,21.46l6.78,6.79V43.62h-11v27.2h11v15.5l-6.78,6.79,16.15,16.15,6.57-6.58h15.82v11h27.2v-11H742.8l6.58,6.58,16.15-16.15-6.68-6.68V70.82ZM723,39.07l9,9V75.4h-27.8l-8.74-8.73-.21-27.6Z"/></g></mask><linearGradient id="linear-gradient" y1="56.24" x2="1153.29" y2="56.24" gradientUnits="userSpaceOnUse"><stop offset="0" stop-color="#f30"/><stop offset="0.16" stop-color="#fe4601"/><stop offset="0.52" stop-color="#fd6d02"/><stop offset="0.82" stop-color="#fc8503"/><stop offset="1" stop-color="#fc8e03"/></linearGradient></defs><g class="cls-1"><rect class="cls-2" width="1153.29" height="112.48"/></g></svg>